# xmcd
#
# Track frame offsets:
#	150
#	11052
#	25219
#	38929
#	52650
#	65429
#	78758
#	92312
#	106023
#	119875
#	133974
#	147670
#	160537
#	170513
#	184478
#	196875
#	211758
#
# Disc length: 3003 seconds
#
# Revision: 1
# Processed by: cddbd v1.5.1PL0 Copyright (c) Steve Scherf et al.
# Submitted via: audiograbber 1.82.01
#
DISCID=e40bb911
DTITLE=Frei - Nur eine Hand voll Freiheit - Grand Prix der Volksmusik 2004 Fina
DTITLE=le
DYEAR=2004
DGENRE=Volksmusik
TTITLE0=Orchester Erich Becht - So schön ist Volksmusik
TTITLE1=Gemeinsam
TTITLE2=Beuge Dich vor grauem Haar
TTITLE3=Ganz Egal
TTITLE4=I bleib bei Volksmusik
TTITLE5=Lange Rede ,Kurzer Sinn
TTITLE6=Madre di dio
TTITLE7=Du schaffst alles wenn Du Liebst
TTITLE8=Dornröschen schläft nicht mehr
TTITLE9=Mein kleiner Blumenstrauß
TTITLE10=Ich schenk mein Herz der Heimat
TTITLE11=Ich bin noch viel zu Jung
TTITLE12=Ramba Zamba
TTITLE13=Ich begleite deine Träume
TTITLE14=Wo die Wälder Rauschen
TTITLE15=Mona
TTITLE16=Nur eine Hand voll Freiheit
EXTD=
EXTT0=
EXTT1=
EXTT2=
EXTT3=
EXTT4=
EXTT5=
EXTT6=
EXTT7=
EXTT8=
EXTT9=
EXTT10=
EXTT11=
EXTT12=
EXTT13=
EXTT14=
EXTT15=
EXTT16=
PLAYORDER=
